# xmcd CD database file
#
# Track frame offsets:
#	150
#	40262
#	63047
#	124667
#	162395
#	187790
#	214860
#
# Disc length: 3399 seconds
#
# Revision: 0
# Processed by: cddbd v1.5.1PL0 Copyright (c) Steve Scherf et al.
# Submitted via: CDex 1.51
#
DISCID=570d4507
DTITLE=Christer Bothén acoustic ensemble - 7 pieces
DYEAR=2001
DGENRE=Jazz
TTITLE0=For y
TTITLE1=Eldklotter
TTITLE2=Orons
TTITLE3=The remainder
TTITLE4=Be still - keep going
TTITLE5=Lovers q
TTITLE6=Loophole
EXTD=YEAR: 2001
EXTT0=
EXTT1=
EXTT2=
EXTT3=
EXTT4=
EXTT5=
EXTT6=
PLAYORDER=
